<?xml version="1.0" standalone="no"?>
<!DOCTYPE svg PUBLIC "-//W3C//DTD SVG 20010904//EN"
 "http://www.w3.org/TR/2001/REC-SVG-20010904/DTD/svg10.dtd">
<svg version="1.0" xmlns="http://www.w3.org/2000/svg"
 width="108.000000pt" height="144.000000pt" viewBox="0 0 108.000000 144.000000"
 preserveAspectRatio="xMidYMid meet">
<metadata>
Created by potrace 1.16, written by Peter Selinger 2001-2019
</metadata>
<g transform="translate(0.000000,144.000000) scale(0.100000,-0.100000)"
fill="#000000" stroke="none">
<path d="M474 1421 c-140 -36 -242 -155 -252 -293 -6 -86 14 -142 87 -245 95
-132 106 -153 106 -208 l0 -50 124 -3 c136 -3 157 3 139 43 -7 17 -7 33 1 56
6 17 11 67 11 109 0 51 4 81 13 88 7 6 37 12 67 14 75 4 81 28 7 28 -88 0 -87
-2 -87 110 0 113 -3 110 101 110 80 0 82 3 40 75 -35 62 -98 121 -157 146 -49
22 -153 32 -200 20z m159 -254 c15 -10 17 -27 15 -107 l-3 -95 -100 0 -100 0
-5 83 c-6 94 -2 112 26 123 32 13 149 10 167 -4z m6 -256 c17 -17 21 -34 21
-92 0 -105 -4 -109 -105 -109 -46 0 -90 3 -99 6 -13 5 -16 24 -16 100 0 110 0
110 106 113 62 2 76 -1 93 -18z"/>
<path d="M194 194 c-9 -21 -18 -62 -21 -91 -5 -46 -3 -53 12 -53 9 0 19 9 22
20 7 28 49 27 56 -1 7 -28 31 -19 35 12 1 13 -6 51 -16 84 -16 52 -22 60 -45
63 -23 3 -30 -2 -43 -34z"/>
<path d="M329 208 c-2 -27 -1 -103 0 -135 2 -47 41 -20 41 28 0 33 28 22 32
-13 2 -22 9 -34 21 -36 15 -3 17 6 17 88 0 82 -2 91 -17 88 -12 -2 -19 -14
-21 -36 -4 -35 -32 -46 -32 -13 0 48 -39 75 -41 29z"/>
<path d="M645 218 c-41 -112 -47 -168 -19 -168 9 0 18 9 21 20 8 28 53 28 53
-1 0 -14 5 -19 18 -17 13 3 17 13 15 48 -1 25 -9 63 -16 85 -11 32 -20 41 -40
43 -16 2 -29 -2 -32 -10z"/>
<path d="M770 139 c0 -81 2 -90 18 -87 14 3 17 14 16 61 0 31 2 57 5 57 4 0
15 -26 27 -57 17 -49 24 -58 47 -61 l27 -3 0 90 c0 72 -3 91 -14 91 -17 0 -28
-44 -21 -82 3 -15 1 -30 -5 -33 -5 -3 -10 0 -10 9 0 8 -9 35 -20 60 -16 37
-24 46 -45 46 -25 0 -25 0 -25 -91z"/>
</g>
</svg>
