<?xml version="1.0" standalone="no"?>
<!DOCTYPE svg PUBLIC "-//W3C//DTD SVG 20010904//EN"
 "http://www.w3.org/TR/2001/REC-SVG-20010904/DTD/svg10.dtd">
<svg version="1.0" xmlns="http://www.w3.org/2000/svg"
 width="473.000000pt" height="185.000000pt" viewBox="0 0 473.000000 185.000000"
 preserveAspectRatio="xMidYMid meet">

<g transform="translate(0.000000,185.000000) scale(0.100000,-0.100000)"
fill="#000000" stroke="none">
<path d="M881 1178 c-9 -24 -55 -146 -102 -272 -60 -164 -89 -230 -101 -234
-37 -9 -16 -22 37 -22 30 0 55 5 55 10 0 6 -11 10 -25 10 -14 0 -25 3 -25 8 0
4 12 42 27 85 l28 77 80 0 81 0 23 -72 c13 -40 26 -79 28 -85 3 -9 -4 -13 -21
-13 -14 0 -26 -4 -26 -10 0 -6 48 -10 125 -10 70 0 125 4 125 9 0 5 -7 11 -16
13 -16 3 -32 43 -173 431 -42 113 -44 117 -72 117 -25 0 -32 -6 -48 -42z m17
-225 l31 -93 -70 0 c-38 0 -69 3 -69 8 -1 20 65 191 71 184 3 -4 20 -49 37
-99z"/>
<path d="M3290 1164 c-59 -11 -91 -27 -120 -60 -26 -30 -30 -42 -30 -94 0 -52
3 -62 30 -88 29 -30 51 -39 197 -81 80 -23 113 -54 113 -103 0 -101 -189 -129
-311 -46 -26 17 -26 17 -37 -7 -10 -21 -8 -27 11 -39 85 -56 225 -69 310 -27
102 50 116 183 26 239 -19 11 -77 32 -129 46 -105 29 -140 49 -155 90 -11 33
6 68 48 100 41 30 146 29 206 -3 35 -18 45 -20 52 -9 20 31 6 48 -51 66 -43
14 -127 22 -160 16z"/>
<path d="M2096 1128 c-8 -18 -64 -143 -125 -278 -61 -134 -111 -248 -111 -252
0 -4 12 -8 28 -8 24 0 31 8 61 75 l33 75 159 0 158 0 21 -47 c38 -89 45 -98
73 -101 15 -2 27 1 27 6 0 6 -56 133 -123 284 -122 269 -124 273 -156 276 -27
3 -33 -1 -45 -30z m112 -181 c34 -78 62 -146 62 -150 0 -4 -58 -7 -130 -7 -71
0 -130 3 -130 8 0 12 125 291 130 292 3 0 33 -64 68 -143z"/>
<path d="M2520 875 l0 -285 30 0 30 0 0 130 0 130 175 0 175 0 0 -130 0 -130
30 0 30 0 0 285 0 285 -30 0 -30 0 0 -130 0 -130 -175 0 -175 0 0 130 0 130
-30 0 -30 0 0 -285z"/>
<path d="M3711 882 c-69 -152 -126 -281 -129 -285 -2 -5 11 -7 29 -5 30 3 34
9 63 75 l31 73 160 0 160 0 32 -73 c29 -65 35 -72 63 -75 18 -2 31 1 29 6 -2
6 -60 134 -128 286 -167 371 -143 371 -310 -2z m225 57 c35 -79 62 -144 60
-146 -2 -2 -62 -2 -134 -1 l-131 3 56 125 c30 69 59 136 64 149 5 13 12 21 16
18 3 -4 34 -70 69 -148z"/>
<path d="M4250 875 l0 -285 25 0 25 0 2 232 3 233 181 -230 c146 -187 185
-231 207 -233 l27 -3 0 285 0 286 -30 0 -30 0 0 -226 c0 -135 -4 -223 -9 -219
-5 3 -87 104 -182 225 -137 176 -176 220 -195 220 l-24 0 0 -285z"/>
</g>
</svg>
